# xmcd
#
# Track frame offsets: 
#        150
#        26199
#        50070
#        73230
#        102039
#        138079
#        159363
#        177471
#        193746
#        229261
#        254071
#        274800
#        296807
#        316966
#        338116
#
# Disc length: 4781 seconds
#
# Revision: 1
# Processed by: cddbd v1.5.2PL0 Copyright (c) Steve Scherf et al.
# Submitted via: ExactAudioCopy v0.95a5
#
DISCID=ec12ab0f
DTITLE=Various Artist - Akella Presents - Various Styles Of Blues - vol.1  CD
DTITLE=2
DYEAR=2010
DGENRE=Blues
TTITLE0=Down for You - PETER GARSTENAUER
TTITLE1=Bridge in Tennessee - NEAL BLACK
TTITLE2=Sensitive Kind - J.J.CALE
TTITLE3=I Think I Love You Too Much - JEFF HEALEY
TTITLE4=No Reply - CRAIG ERICKSON
TTITLE5=Thank You #19 - HUEY LEWIS
TTITLE6=House of Blues - GREGG ALLMAN
TTITLE7=Over My Shoulder - MIKE and The MECHANICS
TTITLE8=One Bottle - RED HOT BLUES
TTITLE9=White Devil - POPA CHUBBY
TTITLE10=Car of the Blues - LITTLE MIKE and TORNADOES
TTITLE11=Love to Ride - JIMMY THACKERY
TTITLE12=Give It To Me-GREGG ROLIE
TTITLE13=I Shall Be Released - JOE COCKER
TTITLE14=Road to Hell (part 2) - CHRIS REA
EXTD=
EXTT0=
EXTT1=
EXTT2=
EXTT3=
EXTT4=
EXTT5=
EXTT6=
EXTT7=
EXTT8=
EXTT9=
EXTT10=
EXTT11=
EXTT12=
EXTT13=
EXTT14=
PLAYORDER=
